<svg width="986" height="554" viewBox="0 0 986 554" fill="none" xmlns="http://www.w3.org/2000/svg">
<path d="M334.8 432.2C315.2 432.2 305.4 416.6 305.4 385.4C305.4 373.4 306.8 359.8 309.6 344.6C312.4 329 315.8 313.4 319.8 297.8C324.2 281.8 328.8 267 333.6 253.4C338.4 239.8 342.8 228.8 346.8 220.4C339.2 229.6 330 240.2 319.2 252.2C308.4 263.8 296 277 282 291.8C263.2 311.4 244 330 224.4 347.6C205.2 365.2 187.2 379.4 170.4 390.2C154 401.4 140.6 407 130.2 407C117.4 407 107.8 403 101.4 395C95 387.4 91.8 376.8 91.8 363.2C91.8 354.8 93.4 344.2 96.6 331.4C100.6 315.8 106.2 300.6 113.4 285.8C121 270.6 130.4 254.4 141.6 237.2C153.2 219.6 167 199.6 183 177.2C203.4 149.2 218 128 226.8 113.6C227.2 112.8 229.2 109.4 232.8 103.4C236.8 97.4 241.2 90 246 81.2C250.8 72 255 62.8 258.6 53.6C262.2 44.4 264 36.4 264 29.6C264 22.8 261 19.4 255 19.4C234.6 19.4 210.4 28.6 182.4 47C163.2 59 144.4 73.2 126 89.6C107.6 106 91 122.8 76.2 140C61.8 156.8 50.4 172.4 42 186.8C35.2 199.6 31.8 210.6 31.8 219.8C31.8 235 40.4 242.6 57.6 242.6C64.8 242.6 68.4 244.6 68.4 248.6C68.4 250.2 67.6 251.2 66 251.6C63.6 252.4 61 252.8 58.2 252.8C41.8 252.8 28 248.8 16.8 240.8C5.6 232.8 1.43051e-06 222.6 1.43051e-06 210.2C1.43051e-06 203.4 2.2 196 6.6 188C13.4 176.4 22.4 163.8 33.6 150.2C44.8 136.6 58.4 122.4 74.4 107.6C95.6 87.6 117.6 69.6 140.4 53.6C163.2 37.2 185 24.2 205.8 14.6C227 4.99999 245 0.19999 259.8 0.19999C271.8 0.19999 280.8 2.19999 286.8 6.19998C292.8 9.79999 295.8 16.2 295.8 25.4C295.8 35.4 293.2 46.4 288 58.4C282.8 70 275.4 83.6 265.8 99.2C261.8 105.6 255.4 114.6 246.6 126.2C238.2 137.8 227.6 152.2 214.8 169.4C188.8 203 168.2 231.6 153 255.2C137.8 278.4 127.2 301.4 121.2 324.2C118 336.2 116.4 346.4 116.4 354.8C116.4 372.4 123.2 381.2 136.8 381.2C150.8 381.2 168.4 373.2 189.6 357.2C211.2 340.8 235.6 318.8 262.8 291.2C290 263.6 318.8 233 349.2 199.4C356 191.8 361.4 185.8 365.4 181.4C369.8 176.6 372.8 173.4 374.4 171.8L388.8 143.6C398.4 124.4 407 108 414.6 94.4C422.2 80.4 429.6 67.4 436.8 55.4C444.4 43.4 452.6 30.8 461.4 17.6C464.6 13.2 468.2 11 472.2 11C478.2 11 483.6 14.4 488.4 21.2C493.6 28 495.4 33.8 493.8 38.6C491.8 46.2 488.8 54.6 484.8 63.8C480.8 73 474.2 82.2 465 91.4L464.4 92C457.6 98.8 448.8 109.4 438 123.8C427.2 137.8 413.6 154.6 397.2 174.2C388.4 191 380 208.4 372 226.4C364 244.4 357.4 261.6 352.2 278C347 294 343.6 308 342 320C341.6 321.6 341 324.4 340.2 328.4C339.8 332.4 339.2 337.6 338.4 344C337.6 350.4 336.8 356.6 336 362.6C335.6 368.2 335.4 373.8 335.4 379.4C335.4 397 339.2 405.8 346.8 405.8C352.4 405.8 358.4 404.6 364.8 402.2C371.2 399.8 376.4 397 380.4 393.8C383.6 391.8 386 390.8 387.6 390.8C389.6 390 390.6 390.4 390.6 392C391 392.4 391.2 393 391.2 393.8C391.2 396.6 389.4 399.6 385.8 402.8C377.8 409.6 369 416.2 359.4 422.6C349.8 429 341.6 432.2 334.8 432.2ZM313.748 553.4C309.748 553.4 306.948 553 305.348 552.2C304.148 551 302.948 549.6 301.748 548C300.548 546.4 299.948 545 299.948 543.8C300.748 526.6 306.148 507 316.148 485C326.148 463 339.348 440 355.748 416C371.748 392 388.948 369 407.348 347C423.748 327 435.148 312 441.548 302C446.748 293.2 452.748 280.4 459.548 263.6C466.748 246.4 474.748 225.4 483.548 200.6C484.348 198.2 487.348 196.6 492.548 195.8C498.948 195.8 502.148 200.6 502.148 210.2C502.148 215.4 501.548 219.2 500.348 221.6C499.948 223.6 499.348 225.6 498.548 227.6C498.148 229.2 497.748 230.4 497.348 231.2C496.148 233.6 495.548 235.2 495.548 236C495.548 236 495.748 236.6 496.148 237.8C496.548 239 496.948 240.6 497.348 242.6C510.548 236.2 522.148 231.2 532.148 227.6C542.148 223.6 551.748 221.6 560.948 221.6C571.748 221.6 579.148 225.2 583.148 232.4C584.348 234.8 584.948 237.8 584.948 241.4C584.948 250.2 581.548 261.4 574.748 275C567.948 288.2 559.148 302 548.348 316.4C537.948 330.4 526.548 343 514.148 354.2C509.748 358.2 503.348 362.6 494.948 367.4C486.948 372.2 478.148 376.6 468.548 380.6C459.348 385 450.348 388.6 441.548 391.4C433.148 394.2 426.548 395.6 421.748 395.6C416.548 406.4 411.348 416.8 406.148 426.8C400.948 437.2 395.548 447.2 389.948 456.8C364.348 502.4 341.548 534.2 321.548 552.2C320.748 553 318.148 553.4 313.748 553.4ZM434.348 369.8C453.148 366.6 473.148 358.4 494.348 345.2C515.548 332 533.148 316.2 547.148 297.8C561.148 279.4 567.548 261 566.348 242.6C563.948 235.4 558.948 231.8 551.348 231.8C546.148 231.8 539.548 233.6 531.548 237.2C523.948 240.8 516.148 245.4 508.148 251C500.148 256.6 492.948 262.2 486.548 267.8C480.548 273.4 476.348 278.2 473.948 282.2C471.948 285 469.548 290 466.748 297.2C465.148 300.4 463.948 303.2 463.148 305.6C462.348 308 461.748 309.6 461.348 310.4C459.348 315.6 456.948 321.4 454.148 327.8C451.348 333.8 448.348 340.2 445.148 347L434.348 369.8ZM320.948 518C320.948 519.6 321.348 520.4 322.148 520.4C324.148 520.4 327.748 517.4 332.948 511.4C341.348 502.6 347.748 494.6 352.148 487.4C360.148 474.6 367.748 461.8 374.948 449C381.748 436.2 388.348 423.4 394.748 410.6C407.948 385 413.548 369.4 411.548 363.8C405.548 369.8 398.548 378.4 390.548 389.6C382.148 401.2 373.748 414 365.348 428C356.548 442 348.548 455.8 341.348 469.4C333.748 483.4 327.948 495.8 323.948 506.6C321.948 513.4 320.948 517.2 320.948 518ZM659.639 396.2C658.839 396.2 658.039 396 657.239 395.6C656.439 395.6 655.639 395.4 654.839 395C649.239 392.2 645.639 388.2 644.039 383C642.439 377.8 642.039 371.2 642.839 363.2C643.639 360 644.439 354.4 645.239 346.4C646.439 338.4 647.839 332 649.439 327.2L618.839 356.6L602.039 372.8C590.439 384.4 580.839 390.2 573.239 390.2C570.039 390.2 567.439 389 565.439 386.6C561.839 382.2 560.039 376.8 560.039 370.4C560.039 362 562.239 353 566.639 343.4C571.039 333.8 576.239 324.6 582.239 315.8C588.239 306.6 593.639 299 598.439 293C610.439 278.2 622.039 266.6 633.239 258.2C644.839 249.8 656.839 245.6 669.239 245.6C676.039 245.6 682.639 246.8 689.039 249.2C695.839 251.6 702.039 255.6 707.639 261.2L708.239 261.8C708.239 263 707.239 264.2 705.239 265.4C704.439 266.2 703.639 266.8 702.839 267.2C702.439 267.6 702.039 268 701.639 268.4C696.839 273.2 691.439 281.2 685.439 292.4C679.439 303.6 674.239 315.4 669.839 327.8C665.439 339.8 663.239 350.2 663.239 359C663.239 367 665.239 372.4 669.239 375.2C671.239 376.4 673.439 377 675.839 377C681.039 377 688.239 373.8 697.439 367.4C697.839 367 698.639 366.4 699.839 365.6C701.439 364.4 703.639 362.8 706.439 360.8C709.639 358.4 712.239 357.2 714.239 357.2C716.239 357.2 717.239 358 717.239 359.6C717.239 362 715.639 364.8 712.439 368C710.039 370 707.239 372.2 704.039 374.6C701.239 377 697.839 379.4 693.839 381.8C687.839 386.2 681.639 389.6 675.239 392C668.839 394.8 663.639 396.2 659.639 396.2ZM591.839 357.8C600.239 357.8 615.839 345.4 638.639 320.6C644.639 313.8 650.039 307.4 654.839 301.4C659.639 295 664.039 288.8 668.039 282.8C675.239 271.2 677.639 263.2 675.239 258.8C674.039 256.4 671.639 255.2 668.039 255.2C663.639 255.2 657.639 257.6 650.039 262.4C642.439 266.8 634.639 272.6 626.639 279.8C619.039 287 612.039 294.2 605.639 301.4C601.239 307 596.839 314.8 592.439 324.8C588.039 334.8 585.839 343 585.839 349.4C585.839 355 587.839 357.8 591.839 357.8ZM741.834 419.6C737.434 419.6 733.634 418.2 730.434 415.4C727.634 412.6 726.434 409.2 726.834 405.2C727.634 388.8 730.634 373 735.834 357.8C741.434 342.6 749.434 324.4 759.834 303.2C761.034 300.4 762.034 298 762.834 296C764.034 293.6 765.034 291.6 765.834 290C774.634 271.2 783.634 253.2 792.834 236C802.034 218.8 811.234 202 820.434 185.6L828.834 170.6C838.434 153.4 846.834 139.6 854.034 129.2C861.234 118.4 868.434 110.6 875.634 105.8C884.834 100.2 890.434 97.4 892.434 97.4C895.634 97.4 898.834 100.2 902.034 105.8C904.034 109.8 900.034 119.6 890.034 135.2C884.834 143.2 878.234 153.2 870.234 165.2C862.634 177.2 853.434 190.8 842.634 206C840.634 208.8 837.234 213.8 832.434 221C828.034 227.8 822.034 236.8 814.434 248C806.834 259.2 800.234 269.4 794.634 278.6C789.034 287.4 784.434 295.2 780.834 302C773.634 315.2 766.834 329.4 760.434 344.6C754.034 359.4 750.834 371 750.834 379.4C750.834 387 753.834 390.8 759.834 390.8C769.434 390.8 784.834 382.6 806.034 366.2C808.434 366.6 809.634 367.8 809.634 369.8C809.634 371.4 807.634 374.2 803.634 378.2C800.034 381.8 795.434 385.6 789.834 389.6C784.634 394 778.434 399 771.234 404.6L761.634 411.8C755.234 417 748.634 419.6 741.834 419.6ZM927.413 396.2C926.613 396.2 925.813 396 925.013 395.6C924.213 395.6 923.413 395.4 922.613 395C917.013 392.2 913.413 388.2 911.813 383C910.213 377.8 909.813 371.2 910.613 363.2C911.413 360 912.213 354.4 913.013 346.4C914.213 338.4 915.613 332 917.213 327.2L886.613 356.6L869.813 372.8C858.213 384.4 848.613 390.2 841.013 390.2C837.813 390.2 835.213 389 833.213 386.6C829.613 382.2 827.813 376.8 827.813 370.4C827.813 362 830.013 353 834.413 343.4C838.813 333.8 844.013 324.6 850.013 315.8C856.013 306.6 861.413 299 866.213 293C878.213 278.2 889.813 266.6 901.012 258.2C912.613 249.8 924.613 245.6 937.013 245.6C943.813 245.6 950.413 246.8 956.813 249.2C963.613 251.6 969.813 255.6 975.413 261.2L976.012 261.8C976.012 263 975.013 264.2 973.013 265.4C972.213 266.2 971.413 266.8 970.613 267.2C970.213 267.6 969.813 268 969.413 268.4C964.613 273.2 959.213 281.2 953.213 292.4C947.213 303.6 942.013 315.4 937.613 327.8C933.213 339.8 931.013 350.2 931.013 359C931.013 367 933.013 372.4 937.013 375.2C939.013 376.4 941.213 377 943.613 377C948.813 377 956.013 373.8 965.213 367.4C965.613 367 966.413 366.4 967.613 365.6C969.213 364.4 971.413 362.8 974.213 360.8C977.413 358.4 980.013 357.2 982.013 357.2C984.013 357.2 985.013 358 985.013 359.6C985.013 362 983.413 364.8 980.212 368C977.813 370 975.013 372.2 971.812 374.6C969.013 377 965.613 379.4 961.613 381.8C955.613 386.2 949.413 389.6 943.013 392C936.613 394.8 931.413 396.2 927.413 396.2ZM859.613 357.8C868.013 357.8 883.613 345.4 906.413 320.6C912.413 313.8 917.813 307.4 922.613 301.4C927.413 295 931.813 288.8 935.813 282.8C943.013 271.2 945.413 263.2 943.013 258.8C941.813 256.4 939.413 255.2 935.813 255.2C931.413 255.2 925.413 257.6 917.813 262.4C910.213 266.8 902.413 272.6 894.413 279.8C886.813 287 879.813 294.2 873.413 301.4C869.013 307 864.613 314.8 860.213 324.8C855.813 334.8 853.613 343 853.613 349.4C853.613 355 855.613 357.8 859.613 357.8Z" fill="white"/>
</svg>
